# xmcd CD database file
#
# Track frame offsets:
#	150
#	13787
#	26893
#	51445
#	70944
#	87693
#	100102
#	123009
#	138208
#	151074
#	165933
#	179066
#	193486
#	205964
#	219482
#
# Disc length: 3089 seconds
#
# Revision: 0
# Processed by: cddbd v1.5PL3 Copyright (c) Steve Scherf et al.
# Submitted via: CDex 1.51
#
DISCID=d80c0f0f
DTITLE=Synchrony - Outside The Mainstream
DYEAR=2001
DGENRE=New Age
TTITLE0=Choir Of Angels
TTITLE1=Energy Field
TTITLE2=The Maze
TTITLE3=The Rainbow Chant
TTITLE4=In Sacred Sound
TTITLE5=Amazing Grace
TTITLE6=Joy In The High Speed
TTITLE7=Piano Of The Canyons
TTITLE8=Succession
TTITLE9=Outside The Mainstream
TTITLE10=Heart Of The Season
TTITLE11=Everest
TTITLE12=Shifting Tides
TTITLE13=In Two K
TTITLE14=Out From Within
EXTD=YEAR: 2001
EXTT0=
EXTT1=
EXTT2=
EXTT3=
EXTT4=
EXTT5=
EXTT6=
EXTT7=
EXTT8=
EXTT9=
EXTT10=
EXTT11=
EXTT12=
EXTT13=
EXTT14=
PLAYORDER=
